<svg width="47" height="47" viewBox="0 0 47 47" fill="none" xmlns="http://www.w3.org/2000/svg">
<path d="M18.5469 40.4407H9.11864C5.18711 40.4407 2 37.2536 2 33.322V9.11864C2 5.18711 5.18711 2 9.11864 2H33.322C37.2536 2 40.4407 5.18711 40.4407 9.11864V18.8258" stroke="#BC7965" stroke-width="2.6" stroke-miterlimit="10" stroke-linecap="round" stroke-linejoin="round"/>
<path d="M25.3398 44C25.3398 40.7771 26.6201 37.6861 28.8992 35.407L37.924 26.3823C39.314 24.9923 41.5677 24.9923 42.9576 26.3823C44.3476 27.7723 44.3476 30.026 42.9576 31.416L33.9328 40.4407C31.6538 42.7198 28.5629 44 25.3398 44Z" stroke="#BC7965" stroke-width="2.6" stroke-miterlimit="10" stroke-linecap="round" stroke-linejoin="round"/>
<path d="M40.4404 33.9327L35.4067 28.899" stroke="#BC7965" stroke-width="2.6" stroke-miterlimit="10" stroke-linecap="round" stroke-linejoin="round"/>
<path d="M9.11865 23.3559L13.7205 18.7541C15.1105 17.364 17.3642 17.364 18.7542 18.7541L27.8321 27.8319" stroke="#BC7965" stroke-width="2.6" stroke-miterlimit="10" stroke-linecap="round" stroke-linejoin="round"/>
<path d="M29.7629 16.2373C31.7287 16.2373 33.3223 14.6437 33.3223 12.678C33.3223 10.7122 31.7287 9.11865 29.7629 9.11865C27.7972 9.11865 26.2036 10.7122 26.2036 12.678C26.2036 14.6437 27.7972 16.2373 29.7629 16.2373Z" stroke="#BC7965" stroke-width="2.6" stroke-miterlimit="10" stroke-linecap="round" stroke-linejoin="round"/>
</svg>
