<svg width="50" height="50" viewBox="0 0 50 50" fill="none" xmlns="http://www.w3.org/2000/svg">
<path d="M45.9998 43.3859C45.9998 41.9421 44.8294 40.7718 43.3857 40.7718H38.0703" stroke="#BC7965" stroke-width="2.6" stroke-miterlimit="10"/>
<path d="M18.4648 14.6307H21.079" stroke="#BC7965" stroke-width="2.6" stroke-miterlimit="10"/>
<path d="M23.6929 14.6307H26.307" stroke="#BC7965" stroke-width="2.6" stroke-miterlimit="10"/>
<path d="M28.9214 14.6307H31.5355" stroke="#BC7965" stroke-width="2.6" stroke-miterlimit="10"/>
<path d="M27.614 30.3154H22.3857V35.5436H27.614V30.3154Z" stroke="#BC7965" stroke-width="2.5" stroke-miterlimit="10"/>
<path d="M38.0705 30.3154H32.8423V35.5436H38.0705V30.3154Z" stroke="#BC7965" stroke-width="2.5" stroke-miterlimit="10"/>
<path d="M11.9295 30.3154H17.1577V35.5436H6.61411C5.17034 35.5436 4 36.7139 4 38.1577" stroke="#BC7965" stroke-width="2.6" stroke-miterlimit="10"/>
<path d="M11.9297 9.22821V35.5436" stroke="#BC7965" stroke-width="2.6" stroke-miterlimit="10"/>
<path d="M46 43.3859V11.8423C46 10.3986 44.8297 9.22822 43.3859 9.22822H11.9295V4H6.61411C5.17034 4 4 5.17034 4 6.61411V38.1577C4 39.6014 5.17034 40.7718 6.61411 40.7718H38.0705V46H43.3859C44.8297 46 46 44.8297 46 43.3859Z" stroke="#BC7965" stroke-width="2.6" stroke-miterlimit="10"/>
<path d="M17.1577 26.3942V22.473H32.8424V26.3942" stroke="#BC7965" stroke-width="2.6" stroke-miterlimit="10"/>
<path d="M25 26.3942V18.5519" stroke="#BC7965" stroke-width="2.6" stroke-miterlimit="10"/>
</svg>
