<svg width="30" height="30" viewBox="0 0 30 30" fill="none" xmlns="http://www.w3.org/2000/svg">
<g clip-path="url(#clip0_67_2082)">
<path d="M22.7614 27.8382C23.315 27.5029 23.492 26.7824 23.1567 26.2287C22.8211 25.675 22.1006 25.4981 21.5472 25.8337C19.5788 27.0259 17.3147 27.6562 15 27.6562C8.02139 27.6562 2.34375 21.9786 2.34375 15C2.34375 8.02139 8.02139 2.34375 15 2.34375C21.9786 2.34375 27.6562 8.02139 27.6562 15C27.6562 17.4955 26.9142 19.9244 25.5103 22.0244C25.1505 22.5625 25.2951 23.2903 25.833 23.6499C26.3713 24.0097 27.0989 23.8651 27.4585 23.3272C29.1213 20.8404 30 17.9608 30 15C30 10.9934 28.4397 7.22649 25.6066 4.39339C22.7735 1.56029 19.0066 0 15 0C10.9934 0 7.22649 1.56029 4.39339 4.39339C1.56029 7.22649 0 10.9934 0 15C0 19.0066 1.56029 22.7735 4.39339 25.6066C7.22649 28.4397 10.9934 30 15 30C17.7429 30 20.4268 29.2525 22.7614 27.8382Z" fill="#C48F7F"/>
<path d="M14.0758 15.224L9.23634 10.3844C8.9214 10.0696 8.9214 9.56066 9.23634 9.24586C9.55113 8.93107 10.0601 8.93107 10.3749 9.24586L15.2145 14.0854L20.0539 9.24586C20.3689 8.93107 20.8777 8.93107 21.1925 9.24586C21.5074 9.56066 21.5074 10.0696 21.1925 10.3844L16.3531 15.224L21.1925 20.0636C21.5074 20.3784 21.5074 20.8874 21.1925 21.2022C21.0356 21.3592 20.8293 21.4381 20.6232 21.4381C20.4171 21.4381 20.211 21.3592 20.0539 21.2022L15.2145 16.3626L10.3749 21.2022C10.2179 21.3592 10.0118 21.4381 9.80562 21.4381C9.59949 21.4381 9.39337 21.3592 9.23634 21.2022C8.9214 20.8874 8.9214 20.3784 9.23634 20.0636L14.0758 15.224Z" fill="#C48F7F" stroke="#C48F7F"/>
</g>
<defs>
<clipPath id="clip0_67_2082">
<rect width="30" height="30" fill="white"/>
</clipPath>
</defs>
</svg>
