<svg width="18" height="18" viewBox="0 0 18 18" fill="none" xmlns="http://www.w3.org/2000/svg">
<g clip-path="url(#clip0_893_1697)">
<path fill-rule="evenodd" clip-rule="evenodd" d="M9 18C4.03738 18 0 13.9626 0 9C0 4.03738 4.03738 0 9 0C13.9626 0 18 4.03738 18 9C18 13.9626 13.9626 18 9 18ZM10.6546 13.7846C11.9337 13.341 12.9817 12.3982 13.5638 11.1902H11.5024C11.3868 11.8852 11.2157 12.526 10.9947 13.0787C10.8905 13.3392 10.7766 13.5746 10.6546 13.7846ZM4.43626 11.1903C5.01834 12.3982 6.06628 13.341 7.34544 13.7846C7.22341 13.5746 7.10954 13.3392 7.00534 13.0787C6.78424 12.526 6.61317 11.8852 6.49758 11.1903H4.43626ZM7.34544 4.21545C6.06628 4.65905 5.01834 5.6018 4.43626 6.80977H6.49758C6.61317 6.11483 6.78424 5.474 7.00534 4.92131C7.10954 4.66084 7.22338 4.42536 7.34544 4.21545ZM9 3.9375C8.63093 3.9375 8.19784 4.44702 7.8698 5.26711C7.68881 5.71961 7.54534 6.24185 7.4423 6.80977H10.5577C10.4547 6.24189 10.3113 5.71961 10.1302 5.26711C9.80216 4.44702 9.36907 3.9375 9 3.9375ZM3.9375 9C3.9375 9.43457 3.99259 9.85648 4.09605 10.2592H6.3797C6.34271 9.84966 6.3231 9.42827 6.3231 9C6.3231 8.57173 6.34271 8.15034 6.3797 7.74077H4.09605C3.99259 8.14352 3.9375 8.56543 3.9375 9ZM7.31398 10.2592H10.6861C10.7254 9.85226 10.7459 9.43035 10.7459 9C10.7459 8.56965 10.7254 8.14774 10.6861 7.74077H7.31398C7.27467 8.14774 7.25414 8.56965 7.25414 9C7.25414 9.43035 7.27464 9.85226 7.31398 10.2592ZM9 14.0625C9.36907 14.0625 9.80216 13.553 10.1302 12.7329C10.3112 12.2804 10.4547 11.7581 10.5577 11.1902H7.44226C7.5453 11.7581 7.68878 12.2804 7.86976 12.7329C8.19784 13.553 8.63093 14.0625 9 14.0625ZM14.0625 9C14.0625 8.56543 14.0074 8.14352 13.9039 7.74077H11.6203C11.6573 8.15034 11.6769 8.57173 11.6769 9C11.6769 9.42827 11.6573 9.84966 11.6203 10.2592H13.9039C14.0074 9.85648 14.0625 9.43457 14.0625 9ZM13.5637 6.80973C12.9817 5.60176 11.9337 4.65901 10.6545 4.21541C10.7766 4.42536 10.8904 4.66084 10.9946 4.92131C11.2157 5.474 11.3868 6.1148 11.5024 6.80977L13.5637 6.80973ZM14.9935 9C14.9935 12.3048 12.3048 14.9935 9 14.9935C5.69514 14.9935 3.00646 12.3048 3.00646 9C3.00646 5.69517 5.69514 3.00646 9 3.00646C12.3049 3.00646 14.9935 5.69517 14.9935 9Z" fill="white"/>
</g>
<defs>
<clipPath id="clip0_893_1697">
<rect width="18" height="18" fill="white"/>
</clipPath>
</defs>
</svg>
