<svg width="32" height="32" viewBox="0 0 32 32" fill="none" xmlns="http://www.w3.org/2000/svg">
<path d="M10.3299 16.4232C10.3471 15.7246 9.94348 15.0837 9.30593 14.7975C8.66837 14.5112 7.92129 14.6353 7.41056 15.1123L4.49126 17.8688C3.79488 18.5257 3.76283 19.6227 4.41968 20.3191C5.07653 21.0155 6.17355 21.0475 6.86993 20.3907L9.78923 17.6342C10.1238 17.3189 10.3185 16.8829 10.3299 16.4232Z" fill="#C48F7F"/>
<path d="M23.6306 1.69032C21.3451 1.62021 19.126 2.46511 17.4659 4.03755C5.12005 15.6957 17.0622 4.4193 11.6273 9.55221C11.4049 9.76596 11.2739 10.0575 11.2618 10.3657C11.2304 11.6232 13.4423 12.6074 14.8374 11.2881L19.0283 7.33242C19.3531 7.02577 19.7864 6.8607 20.2329 6.87355C20.6794 6.88639 21.1025 7.07609 21.4092 7.40091L29.6904 16.1779C34.6701 10.835 31.1074 1.9087 23.6306 1.69032Z" fill="#C48F7F"/>
<path d="M16.6283 23.0995C16.6455 22.4008 16.2419 21.76 15.6043 21.4737C14.9668 21.1874 14.2197 21.3116 13.709 21.7886L10.7897 24.5451C10.3393 24.97 10.1498 25.6029 10.2926 26.2054C10.4354 26.8079 10.8888 27.2885 11.4819 27.466C12.0751 27.6436 12.718 27.4913 13.1683 27.0664L16.0876 24.3099C16.4224 23.9949 16.6171 23.559 16.6283 23.0995Z" fill="#C48F7F"/>
<path d="M29.2778 17.3748C29.2217 17.335 29.3963 17.5028 20.5918 8.17174C20.4895 8.06346 20.3484 8.00026 20.1995 7.99605C20.0506 7.99184 19.9062 8.04696 19.7979 8.14928L15.6071 12.1038C14.9467 12.7288 14.0647 13.0653 13.1558 13.0387C12.2469 13.0122 11.386 12.6249 10.7633 11.9623C10.3469 11.523 10.1224 10.936 10.1393 10.331C10.1563 9.72587 10.4133 9.15241 10.8537 8.73707L15.4516 4.39518C13.3446 2.1345 10.1883 1.17521 7.1797 1.88108C4.17108 2.58695 1.77082 4.84988 0.889113 7.81174C0.00740939 10.7736 0.779288 13.9808 2.91205 16.2172L3.70812 17.0593C3.75752 17.0032 3.71317 17.0531 6.6364 14.2938C7.53338 13.4478 8.87252 13.2742 9.95559 13.8635C11.0386 14.4528 11.6202 15.6715 11.3971 16.8842C12.2981 16.765 13.2014 17.0859 13.8253 17.7468C14.4491 18.4076 14.7175 19.328 14.5466 20.2206C15.4479 20.1024 16.3512 20.4241 16.9749 21.0855C17.5986 21.7469 17.8669 22.6675 17.696 23.5604C18.5743 23.4433 19.4565 23.7453 20.0787 24.376C20.701 25.0066 20.9912 25.8928 20.8624 26.7694C21.6061 27.2016 22.5544 27.0221 23.0887 26.3479C23.6229 25.6737 23.5809 24.7094 22.9901 24.0842L15.5099 16.1588C15.3722 16.0129 15.3229 15.8046 15.3804 15.6124C15.4379 15.4202 15.5936 15.2733 15.7888 15.227C15.984 15.1807 16.1891 15.2421 16.3268 15.388L23.8069 23.3156C24.232 23.7659 24.8651 23.9552 25.4676 23.8121C26.0701 23.6691 26.5505 23.2155 26.7279 22.6223C26.9053 22.029 26.7527 21.3861 26.3276 20.9358L18.8469 13.0088C18.6388 12.7826 18.6512 12.4311 18.8749 12.2202C19.0985 12.0093 19.4502 12.0175 19.6638 12.2385L27.145 20.1656C27.6272 20.675 28.3687 20.8439 29.0239 20.5937C29.6792 20.3434 30.1192 19.7231 30.139 19.022C30.1131 18.3717 29.7971 17.7672 29.2778 17.3748Z" fill="#C48F7F"/>
<path d="M18.0958 24.6546C17.6362 24.6399 17.1899 24.8097 16.8562 25.1261L13.9369 27.8832C13.4865 28.3082 13.2971 28.9412 13.44 29.5437C13.5829 30.1463 14.0364 30.6268 14.6296 30.8044C15.2229 30.9819 15.8658 30.8295 16.3162 30.4045L19.2355 27.648C19.7429 27.1658 19.9112 26.4261 19.6621 25.7719C19.413 25.1177 18.7954 24.6771 18.0958 24.6546Z" fill="#C48F7F"/>
<path d="M13.4788 19.7614C13.496 19.0627 13.0924 18.4219 12.4548 18.1356C11.8173 17.8493 11.0702 17.9734 10.5595 18.4505L7.64016 21.207C6.95588 21.8664 6.93 22.9538 7.58213 23.645C8.23426 24.3362 9.32131 24.3736 10.0194 23.7288L12.9387 20.9717C13.273 20.6565 13.4675 20.2207 13.4788 19.7614Z" fill="#C48F7F"/>
</svg>
