<svg width="50" height="50" viewBox="0 0 50 50" fill="none" xmlns="http://www.w3.org/2000/svg">
<path d="M14.6422 39.2968H4.39453C2.78125 39.2968 1.46484 37.9806 1.46484 36.3671V15.5663C1.46484 13.9527 2.78086 12.6366 4.39453 12.6366H10.7279C13.6325 12.6366 16.1206 11.0832 17.3956 8.4741C17.9229 7.39519 19.1572 6.67957 20.5877 6.67957H29.41C30.8404 6.67957 32.0747 7.39519 32.6021 8.4741C33.8771 11.0831 36.3652 12.6366 39.2697 12.6366H45.6055C47.219 12.6366 48.5352 13.9533 48.5352 15.5663V36.3671C48.5352 37.9803 47.2188 39.2968 45.6055 39.2968H35.1209" stroke="#BC7965" stroke-width="2.8" stroke-miterlimit="22.9256" stroke-linecap="round" stroke-linejoin="round"/>
<path d="M35.0538 39.1557C40.6065 33.6029 40.6065 24.6001 35.0538 19.0474C29.501 13.4946 20.4983 13.4946 14.9455 19.0474C9.39275 24.6001 9.39275 33.6029 14.9455 39.1556C20.4983 44.7084 29.501 44.7084 35.0538 39.1557Z" stroke="#BC7965" stroke-width="2.8" stroke-miterlimit="22.9256" stroke-linecap="round" stroke-linejoin="round"/>
<path d="M26.5163 35.6273C30.1204 34.7904 32.3636 31.1902 31.5267 27.5861C30.6898 23.982 27.0896 21.7388 23.4855 22.5757C19.8814 23.4126 17.6382 27.0128 18.4751 30.6169C19.312 34.221 22.9122 36.4642 26.5163 35.6273Z" stroke="#BC7965" stroke-width="2.8" stroke-miterlimit="22.9256" stroke-linecap="round" stroke-linejoin="round"/>
<path d="M8.10547 18.3007H6.83594" stroke="#BC7965" stroke-width="2.8" stroke-miterlimit="22.9256" stroke-linecap="round" stroke-linejoin="round"/>
<path fill-rule="evenodd" clip-rule="evenodd" d="M6.44531 6.77722H9.57031C10.3223 6.77722 10.9375 7.39246 10.9375 8.14441V12.6366H5.07812V8.14441C5.07812 7.39246 5.69336 6.77722 6.44531 6.77722Z" stroke="#BC7965" stroke-width="2.8" stroke-miterlimit="22.9256" stroke-linecap="round" stroke-linejoin="round"/>
</svg>
