<svg width="18" height="18" viewBox="0 0 18 18" fill="none" xmlns="http://www.w3.org/2000/svg">
<path d="M16.2 16.2V10.926C16.2 8.334 15.642 6.354 12.618 6.354C11.16 6.354 10.188 7.146 9.79204 7.902H9.75604V6.588H6.89404V16.2H9.88204V11.43C9.88204 10.17 10.116 8.964 11.664 8.964C13.194 8.964 13.212 10.386 13.212 11.502V16.182H16.2V16.2Z" fill="white"/>
<path d="M2.03394 6.58801H5.02194V16.2H2.03394V6.58801Z" fill="white"/>
<path d="M3.52805 1.79999C2.57405 1.79999 1.80005 2.57399 1.80005 3.52799C1.80005 4.48199 2.57405 5.27399 3.52805 5.27399C4.48205 5.27399 5.25605 4.48199 5.25605 3.52799C5.25605 2.57399 4.48205 1.79999 3.52805 1.79999Z" fill="white"/>
</svg>
