<?xml version="1.0" encoding="UTF-8"?>
<svg xmlns="http://www.w3.org/2000/svg" width="24" height="24" viewBox="0 0 24 24" fill="none">
  <path d="M16.2188 12.9366H7.78125C7.26343 12.9366 6.84375 12.5169 6.84375 11.9991C6.84375 11.4814 7.26343 11.0616 7.78125 11.0616H16.2188C16.7366 11.0616 17.1562 11.4814 17.1562 11.9991C17.1562 12.5169 16.7366 12.9366 16.2188 12.9366ZM17.1562 8.25C17.1562 7.73218 16.7366 7.3125 16.2188 7.3125H7.78125C7.26343 7.3125 6.84375 7.73218 6.84375 8.25C6.84375 8.76782 7.26343 9.1875 7.78125 9.1875H16.2188C16.7366 9.1875 17.1562 8.76782 17.1562 8.25ZM17.1562 15.75C17.1562 15.2322 16.7366 14.8125 16.2188 14.8125H7.78125C7.26343 14.8125 6.84375 15.2322 6.84375 15.75C6.84375 16.2678 7.26343 16.6875 7.78125 16.6875H16.2188C16.7366 16.6875 17.1562 16.2678 17.1562 15.75ZM18.2091 22.2706C18.652 22.0023 18.7936 21.4259 18.5253 20.983C18.2569 20.54 17.6805 20.3985 17.2377 20.6669C15.663 21.6207 13.8517 22.125 12 22.125C6.41711 22.125 1.875 17.5829 1.875 12C1.875 6.41711 6.41711 1.875 12 1.875C17.5829 1.875 22.125 6.41711 22.125 12C22.125 13.9964 21.5314 15.9395 20.4082 17.6195C20.1204 18.05 20.2361 18.6323 20.6664 18.9199C21.097 19.2078 21.6791 19.092 21.9668 18.6617C23.2971 16.6723 24 14.3687 24 12C24 8.79474 22.7518 5.78119 20.4853 3.51471C18.2188 1.24823 15.2053 0 12 0C8.79474 0 5.78119 1.24823 3.51471 3.51471C1.24823 5.78119 0 8.79474 0 12C0 15.2053 1.24823 18.2188 3.51471 20.4853C5.78119 22.7518 8.79474 24 12 24C14.1943 24 16.3414 23.402 18.2091 22.2706Z" fill="#C48F7F"></path>
</svg>
