<svg xmlns="http://www.w3.org/2000/svg" width="86" height="86" viewBox="0 0 86 86" fill="none">
<path d="M43 0C19.2884 0 0 19.2902 0 43C0 66.7098 19.2884 86 43 86C66.7116 86 86 66.7098 86 43C86 19.2902 66.7116 0 43 0ZM60.0943 44.5065L35.0111 60.6315C34.7171 60.8222 34.3777 60.9167 34.0417 60.9167C33.7478 60.9167 33.4503 60.8432 33.1844 60.698C32.6069 60.3831 32.25 59.7811 32.25 59.125V26.875C32.25 26.2189 32.6069 25.6169 33.1844 25.302C33.7513 24.9906 34.4616 25.0097 35.0111 25.3685L60.0943 41.4935C60.6053 41.8224 60.9167 42.3911 60.9167 43C60.9167 43.6089 60.6053 44.1775 60.0943 44.5065Z" fill="white" fill-opacity="0.8"/>
</svg>
