<svg width="49" height="36" viewBox="0 0 49 36" fill="none" xmlns="http://www.w3.org/2000/svg">
<path d="M11.9042 35.712C9.85616 35.712 8.06416 35.328 6.52816 34.56C4.99216 33.7067 3.75483 32.5974 2.81616 31.232C1.96283 29.8667 1.28016 28.2454 0.768164 26.368C0.256164 24.4907 0.000164509 22.528 0.000164509 20.48C0.000164509 16.2987 1.06683 12.3734 3.20016 8.70403C5.41883 5.03469 8.83216 2.13336 13.4402 2.28882e-05L14.5922 2.30402C12.2028 3.41336 10.0695 5.03469 8.19216 7.16803C6.40016 9.21603 5.3335 11.392 4.99216 13.696C4.48016 15.488 4.4375 17.2374 4.86416 18.944C6.7415 16.896 9.25883 15.872 12.4162 15.872C15.3175 15.872 17.7068 16.768 19.5842 18.56C21.4615 20.2667 22.4002 22.656 22.4002 25.728C22.4002 28.7147 21.4188 31.1467 19.4562 33.024C17.4935 34.816 14.9762 35.712 11.9042 35.712ZM38.2722 35.712C36.2242 35.712 34.4322 35.328 32.8962 34.56C31.3602 33.7067 30.1228 32.5974 29.1842 31.232C28.3308 29.8667 27.6482 28.2454 27.1362 26.368C26.6242 24.4907 26.3682 22.528 26.3682 20.48C26.3682 16.2987 27.4348 12.3734 29.5682 8.70403C31.7868 5.03469 35.2002 2.13336 39.8082 2.28882e-05L40.9602 2.30402C38.5708 3.41336 36.4375 5.03469 34.5602 7.16803C32.7682 9.21603 31.7015 11.392 31.3602 13.696C30.8482 15.488 30.8055 17.2374 31.2322 18.944C33.1095 16.896 35.6268 15.872 38.7842 15.872C41.6855 15.872 44.0748 16.768 45.9522 18.56C47.8295 20.2667 48.7682 22.656 48.7682 25.728C48.7682 28.7147 47.7868 31.1467 45.8242 33.024C43.8615 34.816 41.3442 35.712 38.2722 35.712Z" fill="#BC7965"/>
</svg>
